<svg version="1.1" xmlns="http://www.w3.org/2000/svg" style="display: block;" viewBox="0 0 2048 2048" width="1024" height="1024" preserveAspectRatio="none">
<path transform="translate(0,0)" fill="rgb(255,255,255)" d="M 0 0 L 2048 0 L 2048 2048 L 0 2048 L 0 0 z"/>
<path transform="translate(0,0)" fill="rgb(0,50,106)" d="M 1728.76 688.218 C 1740.46 688.186 1806.26 686.669 1811.85 690.267 C 1815.71 703.526 1813.67 756.008 1813.67 772.634 L 1813.62 918.981 L 1813.6 1062.24 C 1813.62 1087.66 1813.71 1113.25 1813.54 1138.67 C 1813.52 1141.94 1813.43 1145.09 1811.21 1147.47 C 1807.57 1149.53 1804.52 1149.02 1800.25 1148.99 L 1709.05 1148.97 C 1664.08 1090.3 1616.75 1031.42 1571.03 973.214 L 1440.14 806.066 L 1440.07 1148.96 L 1355.26 1148.86 C 1353.77 1124.03 1355.06 1083.26 1355.07 1057.62 L 1355.12 877.772 L 1355.07 754.821 C 1355.06 740.987 1354.15 705.795 1355.53 693.568 C 1357.43 690.122 1357.72 690.266 1361.01 688.3 C 1396.12 687.563 1433.28 688.161 1468.55 688.14 C 1476.94 700.161 1489.97 715.766 1499.23 727.609 L 1559.22 804.365 L 1728.28 1021.25 C 1729.09 984.788 1728.57 946.815 1728.56 910.238 L 1728.76 688.218 z"/>
<path transform="translate(0,0)" fill="rgb(0,50,106)" d="M 342.616 688.408 C 351.115 687.432 372.661 687.963 381.743 687.975 L 455.987 688.042 L 709.761 687.99 C 709.638 712.068 709.995 736.145 709.984 760.202 C 709.983 763.546 709.493 773.552 706.447 774.909 C 703.777 776.098 697.332 777.121 694.169 777.139 C 668.21 777.294 642.01 777.185 616.066 777.171 L 461.645 777.124 C 387.714 777.134 341.381 766.649 346.941 860.091 C 347.233 864.993 346.974 871.929 346.995 877.034 L 574.984 877.026 C 616.193 877.019 658.893 876.338 699.976 877.141 C 701.911 879.211 701.245 879.026 701.341 882.75 L 701.221 968.885 C 660.662 968.224 618.697 968.722 578.067 968.727 L 347.067 968.749 L 346.914 1148.95 L 242.141 1148.99 L 242.193 901.267 L 242.118 832.998 C 242.106 816.763 241.547 793.522 244.333 778.104 C 247.71 758.818 256.037 740.739 268.5 725.638 C 288.097 702.283 312.735 691.157 342.616 688.408 z"/>
<path transform="translate(0,0)" fill="rgb(0,50,106)" d="M 768.118 688.043 L 905.063 688.01 C 964.841 761.984 1028.92 837.398 1087.33 911.932 L 894.518 1148.41 C 889.974 1149.47 861.067 1149.03 854.486 1149.02 L 758.236 1148.82 L 871.541 1008.9 C 897.541 976.88 924.977 944.226 950.395 911.931 C 910.358 861.582 867.921 812.553 827.89 762.137 C 808.185 737.321 787.266 713.307 768.118 688.043 z"/>
<path transform="translate(0,0)" fill="rgb(62,173,66)" d="M 1122.73 920.679 C 1129.56 927.679 1140.32 941.85 1146.9 950.027 L 1192.52 1006.73 C 1229.64 1052.78 1271.59 1102.31 1307.13 1149.02 L 1242.25 1148.96 L 1172.99 1149 C 1158.86 1132.71 1144.04 1113.33 1130.4 1096.38 L 1055.38 1003.53 C 1076.02 980.498 1103.35 945.465 1122.73 920.679 z"/>
<path transform="translate(0,0)" fill="rgb(62,173,66)" d="M 1160.92 688.172 L 1298.07 688.083 C 1284.76 706.162 1265.79 728.054 1251.24 746.041 L 1153.82 866.362 C 1144.11 878.401 1133.37 892.322 1123.12 903.668 C 1102.14 876.132 1076.78 846.368 1054.75 819.274 C 1064.07 809.428 1076.37 792.476 1085.31 781.687 C 1110.48 751.301 1134.98 717.678 1160.92 688.172 z"/>
<path transform="translate(0,0)" fill="rgb(0,50,106)" d="M 1106.69 1223.77 C 1134.02 1218.19 1160.68 1235.85 1166.2 1263.18 C 1171.72 1290.52 1154 1317.15 1126.65 1322.6 C 1099.39 1328.04 1072.87 1310.39 1067.37 1283.14 C 1061.86 1255.9 1079.46 1229.33 1106.69 1223.77 z"/>
<path transform="translate(0,0)" fill="rgb(255,255,255)" d="M 1110.49 1239.6 C 1128.79 1236.15 1146.48 1247.98 1150.28 1266.2 C 1154.08 1284.43 1142.6 1302.34 1124.46 1306.5 C 1112.4 1309.26 1099.79 1305.29 1091.49 1296.13 C 1083.19 1286.96 1080.49 1274.02 1084.43 1262.3 C 1088.37 1250.57 1098.34 1241.89 1110.49 1239.6 z"/>
<path transform="translate(0,0)" fill="rgb(0,50,106)" d="M 907.735 1225.98 C 921.906 1225.83 949.397 1223.99 961.588 1228.04 C 988.56 1236.98 989.272 1271.54 962.623 1283.99 L 983.703 1320.41 L 966.883 1320.68 C 962.511 1320.39 948.636 1291.9 945.84 1286.77 C 939.146 1286.56 931.763 1286.72 925.008 1286.74 L 924.96 1320.62 L 907.512 1320.81 C 907.754 1289.2 907.828 1257.59 907.735 1225.98 z"/>
<path transform="translate(0,0)" fill="rgb(255,255,255)" d="M 924.998 1241.02 C 941.28 1240.75 979.344 1239.32 960.343 1267.77 C 951.988 1274.08 935.763 1272.24 924.966 1272.07 L 924.998 1241.02 z"/>
<path transform="translate(0,0)" fill="rgb(0,50,106)" d="M 1255.57 1226.02 C 1265.03 1225.91 1278.67 1226.46 1288.61 1225.78 C 1321.19 1223.56 1339.56 1250.21 1321.36 1278.39 C 1316.18 1286.41 1306.97 1288.65 1297.42 1289.88 L 1272.87 1290 L 1272.86 1320.54 C 1267.21 1320.63 1261.19 1320.49 1255.51 1320.45 C 1255.19 1291.16 1254.46 1255.01 1255.57 1226.02 z"/>
<path transform="translate(0,0)" fill="rgb(255,255,255)" d="M 1272.79 1241.06 C 1278.04 1240.98 1283.33 1240.93 1288.56 1240.97 C 1307.72 1241.1 1318.96 1252.47 1306.7 1270.32 C 1297.55 1277.11 1284.35 1275.18 1272.84 1274.94 L 1272.79 1241.06 z"/>
<path transform="translate(0,0)" fill="rgb(0,50,106)" d="M 580.767 1225.92 L 645.937 1225.95 L 645.894 1241.04 L 597.923 1241.12 L 597.939 1264.99 L 639.339 1265.03 L 639.407 1279.57 L 598.005 1279.63 L 597.991 1305.59 C 613.872 1305.27 630.366 1305.53 646.296 1305.58 L 646.279 1320.59 C 624.459 1320.74 602.638 1320.73 580.818 1320.54 L 580.767 1225.92 z"/>
<path transform="translate(0,0)" fill="rgb(0,50,106)" d="M 1416 1226 L 1481.08 1225.93 L 1481.02 1241.08 C 1465.14 1241.27 1449.02 1241.15 1433.12 1241.17 L 1433.07 1265.08 L 1475 1265.02 L 1474.91 1279.44 C 1461.02 1279.23 1447.12 1279.33 1433.23 1279.75 C 1433.08 1288.27 1433.15 1297 1433.12 1305.54 C 1449.41 1305.35 1465.7 1305.34 1481.99 1305.52 L 1482.04 1320.75 L 1415.98 1320.5 C 1415.8 1289 1415.81 1257.5 1416 1226 z"/>
<path transform="translate(0,0)" fill="rgb(0,50,106)" d="M 797.667 1226.02 L 814.934 1225.94 L 814.764 1240.68 C 814.963 1256.87 816.36 1279.16 813.398 1294.8 C 807.731 1324.7 763.116 1331.69 743.306 1311.31 C 739.505 1307.38 736.75 1302.56 735.294 1297.29 C 731.772 1284.99 733.214 1240.91 733.288 1226.03 C 738.986 1225.9 744.976 1225.98 750.702 1225.96 C 750.481 1239.05 750.669 1252.55 750.372 1265.6 C 749.539 1283.71 749.694 1307.56 773.96 1307.68 C 801.196 1307.81 797.778 1277.95 797.747 1259.32 C 797.729 1247.94 797.704 1237.05 797.667 1226.02 z"/>
<path transform="translate(0,0)" fill="rgb(0,50,106)" d="M 243.213 1268.87 L 405.918 1268.74 L 462.171 1268.66 C 468.656 1268.65 492.174 1267.37 495.963 1270.64 C 497.002 1274.29 496.745 1274.27 495.624 1277.76 L 493.755 1278.54 L 326.615 1278.53 C 305.523 1278.54 264.153 1279.83 244.43 1278.34 C 242.527 1275.63 243.142 1272.39 243.213 1268.87 z"/>
<path transform="translate(0,0)" fill="rgb(0,50,106)" d="M 1562.76 1268.62 L 1728.77 1268.7 C 1753.86 1268.67 1787.77 1267.69 1812.25 1268.95 C 1813.92 1271.41 1813.27 1275.09 1813.17 1278.33 C 1756.77 1279.25 1698.62 1278.56 1642.1 1278.57 L 1591.34 1278.62 C 1584.57 1278.62 1570 1279.01 1563.84 1278.05 C 1562.38 1275.64 1562.77 1271.61 1562.76 1268.62 z"/>
</svg>
